<mxfile host="app.diagrams.net" modified="2023-08-23T14:07:14.175Z" agent="Mozilla/5.0 (Windows NT 10.0; Win64; x64) AppleWebKit/537.36 (KHTML, like Gecko) Chrome/116.0.0.0 Safari/537.36" etag="TKCojz8-tTXBcsxJ-QyA" version="21.6.8" type="github">
  <diagram name="Page-1" id="0783ab3e-0a74-02c8-0abd-f7b4e66b4bec">
    <mxGraphModel dx="1216" dy="536" grid="1" gridSize="10" guides="1" tooltips="1" connect="1" arrows="1" fold="1" page="1" pageScale="1" pageWidth="850" pageHeight="1100" background="none" math="0" shadow="0">
      <root>
        <mxCell id="0" />
        <mxCell id="1" parent="0" />
        <mxCell id="1c1d494c118603dd-1" value="PPDB" style="swimlane;html=1;childLayout=stackLayout;startSize=20;rounded=0;shadow=0;comic=0;labelBackgroundColor=none;strokeWidth=1;fontFamily=Verdana;fontSize=12;align=center;" parent="1" vertex="1">
          <mxGeometry x="80" y="90" width="500" height="490" as="geometry" />
        </mxCell>
        <mxCell id="1c1d494c118603dd-2" value="USER" style="swimlane;html=1;startSize=20;" parent="1c1d494c118603dd-1" vertex="1">
          <mxGeometry y="20" width="250" height="470" as="geometry" />
        </mxCell>
        <mxCell id="uy0knRusU4-EjpB2rzDp-4" value="" style="ellipse;html=1;shape=startState;fillColor=#000000;strokeColor=#ff0000;" vertex="1" parent="1c1d494c118603dd-2">
          <mxGeometry x="110" y="20" width="30" height="30" as="geometry" />
        </mxCell>
        <mxCell id="uy0knRusU4-EjpB2rzDp-15" style="edgeStyle=orthogonalEdgeStyle;rounded=0;orthogonalLoop=1;jettySize=auto;html=1;exitX=1;exitY=0.5;exitDx=0;exitDy=0;" edge="1" parent="1c1d494c118603dd-2" source="uy0knRusU4-EjpB2rzDp-12">
          <mxGeometry relative="1" as="geometry">
            <mxPoint x="320" y="155" as="targetPoint" />
          </mxGeometry>
        </mxCell>
        <mxCell id="uy0knRusU4-EjpB2rzDp-12" value="Memilih Menu Daftar" style="rounded=1;whiteSpace=wrap;html=1;arcSize=50;" vertex="1" parent="1c1d494c118603dd-2">
          <mxGeometry x="75" y="140" width="100" height="30" as="geometry" />
        </mxCell>
        <mxCell id="uy0knRusU4-EjpB2rzDp-22" style="edgeStyle=orthogonalEdgeStyle;rounded=0;orthogonalLoop=1;jettySize=auto;html=1;exitX=1;exitY=0.5;exitDx=0;exitDy=0;" edge="1" parent="1c1d494c118603dd-2" source="uy0knRusU4-EjpB2rzDp-21">
          <mxGeometry relative="1" as="geometry">
            <mxPoint x="320" y="245.31034482758628" as="targetPoint" />
          </mxGeometry>
        </mxCell>
        <mxCell id="uy0knRusU4-EjpB2rzDp-21" value="Mengisi Formulir" style="rounded=1;whiteSpace=wrap;html=1;arcSize=50;" vertex="1" parent="1c1d494c118603dd-2">
          <mxGeometry x="75" y="230" width="100" height="30" as="geometry" />
        </mxCell>
        <mxCell id="uy0knRusU4-EjpB2rzDp-27" style="edgeStyle=orthogonalEdgeStyle;rounded=0;orthogonalLoop=1;jettySize=auto;html=1;exitX=0.5;exitY=1;exitDx=0;exitDy=0;entryX=0.5;entryY=0;entryDx=0;entryDy=0;" edge="1" parent="1c1d494c118603dd-2" source="uy0knRusU4-EjpB2rzDp-25" target="uy0knRusU4-EjpB2rzDp-26">
          <mxGeometry relative="1" as="geometry" />
        </mxCell>
        <mxCell id="uy0knRusU4-EjpB2rzDp-25" value="Login" style="rounded=1;whiteSpace=wrap;html=1;arcSize=50;" vertex="1" parent="1c1d494c118603dd-2">
          <mxGeometry x="70" y="300" width="100" height="30" as="geometry" />
        </mxCell>
        <mxCell id="uy0knRusU4-EjpB2rzDp-26" value="" style="ellipse;html=1;shape=endState;fillColor=#000000;strokeColor=#ff0000;" vertex="1" parent="1c1d494c118603dd-2">
          <mxGeometry x="110" y="360" width="30" height="30" as="geometry" />
        </mxCell>
        <mxCell id="uy0knRusU4-EjpB2rzDp-2" value="WEB" style="swimlane;html=1;startSize=20;" vertex="1" parent="1c1d494c118603dd-1">
          <mxGeometry x="250" y="20" width="250" height="470" as="geometry" />
        </mxCell>
        <mxCell id="uy0knRusU4-EjpB2rzDp-11" style="edgeStyle=orthogonalEdgeStyle;rounded=0;orthogonalLoop=1;jettySize=auto;html=1;exitX=0.5;exitY=1;exitDx=0;exitDy=0;" edge="1" parent="uy0knRusU4-EjpB2rzDp-2" source="uy0knRusU4-EjpB2rzDp-10">
          <mxGeometry relative="1" as="geometry">
            <mxPoint x="-130" y="140" as="targetPoint" />
          </mxGeometry>
        </mxCell>
        <mxCell id="uy0knRusU4-EjpB2rzDp-10" value="Menampilkan Beranda" style="rounded=1;whiteSpace=wrap;html=1;arcSize=50;" vertex="1" parent="uy0knRusU4-EjpB2rzDp-2">
          <mxGeometry x="60" y="65" width="100" height="30" as="geometry" />
        </mxCell>
        <mxCell id="uy0knRusU4-EjpB2rzDp-19" style="edgeStyle=orthogonalEdgeStyle;rounded=0;orthogonalLoop=1;jettySize=auto;html=1;exitX=0.5;exitY=1;exitDx=0;exitDy=0;" edge="1" parent="uy0knRusU4-EjpB2rzDp-2" source="uy0knRusU4-EjpB2rzDp-16">
          <mxGeometry relative="1" as="geometry">
            <mxPoint x="-130" y="230" as="targetPoint" />
          </mxGeometry>
        </mxCell>
        <mxCell id="uy0knRusU4-EjpB2rzDp-16" value="Menampilkan Formulir" style="rounded=1;whiteSpace=wrap;html=1;arcSize=50;" vertex="1" parent="uy0knRusU4-EjpB2rzDp-2">
          <mxGeometry x="70" y="140" width="100" height="30" as="geometry" />
        </mxCell>
        <mxCell id="uy0knRusU4-EjpB2rzDp-24" style="edgeStyle=orthogonalEdgeStyle;rounded=0;orthogonalLoop=1;jettySize=auto;html=1;exitX=0.5;exitY=1;exitDx=0;exitDy=0;" edge="1" parent="uy0knRusU4-EjpB2rzDp-2" source="uy0knRusU4-EjpB2rzDp-23">
          <mxGeometry relative="1" as="geometry">
            <mxPoint x="-130" y="300" as="targetPoint" />
          </mxGeometry>
        </mxCell>
        <mxCell id="uy0knRusU4-EjpB2rzDp-23" value="Menampilkan User serta Pass" style="rounded=1;whiteSpace=wrap;html=1;arcSize=50;" vertex="1" parent="uy0knRusU4-EjpB2rzDp-2">
          <mxGeometry x="70" y="230" width="100" height="30" as="geometry" />
        </mxCell>
        <mxCell id="uy0knRusU4-EjpB2rzDp-5" value="" style="edgeStyle=orthogonalEdgeStyle;html=1;verticalAlign=bottom;endArrow=open;endSize=8;strokeColor=#ff0000;rounded=0;" edge="1" source="uy0knRusU4-EjpB2rzDp-7" parent="1">
          <mxGeometry relative="1" as="geometry">
            <mxPoint x="205" y="180" as="targetPoint" />
          </mxGeometry>
        </mxCell>
        <mxCell id="uy0knRusU4-EjpB2rzDp-9" style="edgeStyle=orthogonalEdgeStyle;rounded=0;orthogonalLoop=1;jettySize=auto;html=1;exitX=1;exitY=0.5;exitDx=0;exitDy=0;" edge="1" parent="1" source="uy0knRusU4-EjpB2rzDp-7">
          <mxGeometry relative="1" as="geometry">
            <mxPoint x="390" y="189.79310344827587" as="targetPoint" />
          </mxGeometry>
        </mxCell>
        <mxCell id="uy0knRusU4-EjpB2rzDp-7" value="Membuka Link" style="rounded=1;whiteSpace=wrap;html=1;arcSize=50;" vertex="1" parent="1">
          <mxGeometry x="157.5" y="180" width="95" height="20" as="geometry" />
        </mxCell>
        <mxCell id="uy0knRusU4-EjpB2rzDp-8" value="" style="edgeStyle=orthogonalEdgeStyle;html=1;verticalAlign=bottom;endArrow=open;endSize=8;strokeColor=#ff0000;rounded=0;" edge="1" parent="1" source="uy0knRusU4-EjpB2rzDp-4" target="uy0knRusU4-EjpB2rzDp-7">
          <mxGeometry relative="1" as="geometry">
            <mxPoint x="205" y="180" as="targetPoint" />
            <mxPoint x="205" y="160" as="sourcePoint" />
          </mxGeometry>
        </mxCell>
        <mxCell id="uy0knRusU4-EjpB2rzDp-131" value="" style="group" vertex="1" connectable="0" parent="1">
          <mxGeometry x="230" y="1210" width="590" height="480" as="geometry" />
        </mxCell>
        <mxCell id="uy0knRusU4-EjpB2rzDp-133" style="edgeStyle=orthogonalEdgeStyle;rounded=0;orthogonalLoop=1;jettySize=auto;html=1;exitX=1;exitY=0.25;exitDx=0;exitDy=0;" edge="1" parent="uy0knRusU4-EjpB2rzDp-131" source="uy0knRusU4-EjpB2rzDp-66">
          <mxGeometry relative="1" as="geometry">
            <mxPoint x="391.5" y="120" as="targetPoint" />
          </mxGeometry>
        </mxCell>
        <mxCell id="uy0knRusU4-EjpB2rzDp-156" style="edgeStyle=orthogonalEdgeStyle;rounded=0;orthogonalLoop=1;jettySize=auto;html=1;exitX=0;exitY=0.25;exitDx=0;exitDy=0;" edge="1" parent="uy0knRusU4-EjpB2rzDp-131" source="uy0knRusU4-EjpB2rzDp-66">
          <mxGeometry relative="1" as="geometry">
            <mxPoint x="21.5" y="120" as="targetPoint" />
          </mxGeometry>
        </mxCell>
        <mxCell id="uy0knRusU4-EjpB2rzDp-66" value="PPMart" style="swimlane;whiteSpace=wrap;html=1;" vertex="1" parent="uy0knRusU4-EjpB2rzDp-131">
          <mxGeometry x="64.5" width="240" height="480" as="geometry" />
        </mxCell>
        <mxCell id="uy0knRusU4-EjpB2rzDp-86" value="- Kategori : string" style="text;html=1;strokeColor=none;fillColor=none;align=center;verticalAlign=middle;whiteSpace=wrap;rounded=0;" vertex="1" parent="uy0knRusU4-EjpB2rzDp-66">
          <mxGeometry x="3.5" y="230" width="138" height="30" as="geometry" />
        </mxCell>
        <mxCell id="uy0knRusU4-EjpB2rzDp-87" value="- JumlahKP : int" style="text;html=1;strokeColor=none;fillColor=none;align=center;verticalAlign=middle;whiteSpace=wrap;rounded=0;" vertex="1" parent="uy0knRusU4-EjpB2rzDp-66">
          <mxGeometry y="250" width="138" height="30" as="geometry" />
        </mxCell>
        <mxCell id="uy0knRusU4-EjpB2rzDp-184" style="edgeStyle=orthogonalEdgeStyle;rounded=0;orthogonalLoop=1;jettySize=auto;html=1;exitX=0;exitY=0.25;exitDx=0;exitDy=0;" edge="1" parent="uy0knRusU4-EjpB2rzDp-66" source="uy0knRusU4-EjpB2rzDp-92">
          <mxGeometry relative="1" as="geometry">
            <mxPoint x="-44.5" y="359.8888888888887" as="targetPoint" />
          </mxGeometry>
        </mxCell>
        <mxCell id="uy0knRusU4-EjpB2rzDp-92" value="" style="swimlane;startSize=0;" vertex="1" parent="uy0knRusU4-EjpB2rzDp-66">
          <mxGeometry y="320" width="240" height="160" as="geometry" />
        </mxCell>
        <mxCell id="uy0knRusU4-EjpB2rzDp-77" value="" style="group" vertex="1" connectable="0" parent="uy0knRusU4-EjpB2rzDp-92">
          <mxGeometry x="7.5" y="10" width="125" height="97" as="geometry" />
        </mxCell>
        <mxCell id="uy0knRusU4-EjpB2rzDp-70" value="+ Produk ()" style="text;html=1;strokeColor=none;fillColor=none;align=center;verticalAlign=middle;whiteSpace=wrap;rounded=0;" vertex="1" parent="uy0knRusU4-EjpB2rzDp-77">
          <mxGeometry width="100" height="30" as="geometry" />
        </mxCell>
        <mxCell id="uy0knRusU4-EjpB2rzDp-74" value="+ Supplier ()" style="text;html=1;strokeColor=none;fillColor=none;align=center;verticalAlign=middle;whiteSpace=wrap;rounded=0;" vertex="1" parent="uy0knRusU4-EjpB2rzDp-77">
          <mxGeometry x="2" y="23" width="100" height="30" as="geometry" />
        </mxCell>
        <mxCell id="uy0knRusU4-EjpB2rzDp-75" value="+ Karyawan ()" style="text;html=1;strokeColor=none;fillColor=none;align=center;verticalAlign=middle;whiteSpace=wrap;rounded=0;" vertex="1" parent="uy0knRusU4-EjpB2rzDp-77">
          <mxGeometry x="7" y="45" width="100" height="30" as="geometry" />
        </mxCell>
        <mxCell id="uy0knRusU4-EjpB2rzDp-76" value="+KategoriProduk ()" style="text;html=1;strokeColor=none;fillColor=none;align=center;verticalAlign=middle;whiteSpace=wrap;rounded=0;" vertex="1" parent="uy0knRusU4-EjpB2rzDp-77">
          <mxGeometry x="15" y="67" width="110" height="30" as="geometry" />
        </mxCell>
        <mxCell id="uy0knRusU4-EjpB2rzDp-96" value="" style="group" vertex="1" connectable="0" parent="uy0knRusU4-EjpB2rzDp-66">
          <mxGeometry x="15" y="30" width="133" height="70" as="geometry" />
        </mxCell>
        <mxCell id="uy0knRusU4-EjpB2rzDp-78" value="- KodeProduk : Int" style="text;html=1;strokeColor=none;fillColor=none;align=center;verticalAlign=middle;whiteSpace=wrap;rounded=0;" vertex="1" parent="uy0knRusU4-EjpB2rzDp-96">
          <mxGeometry width="115" height="30" as="geometry" />
        </mxCell>
        <mxCell id="uy0knRusU4-EjpB2rzDp-68" value="- NamaProduk : string" style="text;html=1;strokeColor=none;fillColor=none;align=center;verticalAlign=middle;whiteSpace=wrap;rounded=0;" vertex="1" parent="uy0knRusU4-EjpB2rzDp-96">
          <mxGeometry x="3" y="20" width="130" height="30" as="geometry" />
        </mxCell>
        <mxCell id="uy0knRusU4-EjpB2rzDp-67" value="- HargaProduk : int" style="text;html=1;strokeColor=none;fillColor=none;align=center;verticalAlign=middle;whiteSpace=wrap;rounded=0;" vertex="1" parent="uy0knRusU4-EjpB2rzDp-96">
          <mxGeometry x="5" y="40" width="110" height="30" as="geometry" />
        </mxCell>
        <mxCell id="uy0knRusU4-EjpB2rzDp-117" value="" style="group" vertex="1" connectable="0" parent="uy0knRusU4-EjpB2rzDp-66">
          <mxGeometry x="17.5" y="90" width="128.5" height="50" as="geometry" />
        </mxCell>
        <mxCell id="uy0knRusU4-EjpB2rzDp-80" value="- KodeSupply : int" style="text;html=1;strokeColor=none;fillColor=none;align=center;verticalAlign=middle;whiteSpace=wrap;rounded=0;" vertex="1" parent="uy0knRusU4-EjpB2rzDp-117">
          <mxGeometry width="110" height="30" as="geometry" />
        </mxCell>
        <mxCell id="uy0knRusU4-EjpB2rzDp-81" value="- NamaSupply : string" style="text;html=1;strokeColor=none;fillColor=none;align=center;verticalAlign=middle;whiteSpace=wrap;rounded=0;" vertex="1" parent="uy0knRusU4-EjpB2rzDp-117">
          <mxGeometry x="0.5" y="20" width="128" height="30" as="geometry" />
        </mxCell>
        <mxCell id="uy0knRusU4-EjpB2rzDp-134" value="" style="group" vertex="1" connectable="0" parent="uy0knRusU4-EjpB2rzDp-66">
          <mxGeometry x="13" y="130" width="160.5" height="110" as="geometry" />
        </mxCell>
        <mxCell id="uy0knRusU4-EjpB2rzDp-82" value="- KodeKaryawan : int" style="text;html=1;strokeColor=none;fillColor=none;align=center;verticalAlign=middle;whiteSpace=wrap;rounded=0;" vertex="1" parent="uy0knRusU4-EjpB2rzDp-134">
          <mxGeometry width="138" height="30" as="geometry" />
        </mxCell>
        <mxCell id="uy0knRusU4-EjpB2rzDp-83" value="- NamaKaryawan : string" style="text;html=1;strokeColor=none;fillColor=none;align=center;verticalAlign=middle;whiteSpace=wrap;rounded=0;" vertex="1" parent="uy0knRusU4-EjpB2rzDp-134">
          <mxGeometry x="9" y="20" width="138" height="30" as="geometry" />
        </mxCell>
        <mxCell id="uy0knRusU4-EjpB2rzDp-84" value="- UsiaKaryawan : int&amp;nbsp;" style="text;html=1;strokeColor=none;fillColor=none;align=center;verticalAlign=middle;whiteSpace=wrap;rounded=0;" vertex="1" parent="uy0knRusU4-EjpB2rzDp-134">
          <mxGeometry y="41" width="138" height="30" as="geometry" />
        </mxCell>
        <mxCell id="uy0knRusU4-EjpB2rzDp-85" value="- JpKaryawan : string" style="text;html=1;strokeColor=none;fillColor=none;align=center;verticalAlign=middle;whiteSpace=wrap;rounded=0;" vertex="1" parent="uy0knRusU4-EjpB2rzDp-134">
          <mxGeometry x="2" y="80" width="138" height="30" as="geometry" />
        </mxCell>
        <mxCell id="uy0knRusU4-EjpB2rzDp-88" value="- AlamatKaryawan : string" style="text;html=1;strokeColor=none;fillColor=none;align=center;verticalAlign=middle;whiteSpace=wrap;rounded=0;" vertex="1" parent="uy0knRusU4-EjpB2rzDp-134">
          <mxGeometry x="4.5" y="60" width="156" height="30" as="geometry" />
        </mxCell>
        <mxCell id="uy0knRusU4-EjpB2rzDp-93" value="Produk()" style="swimlane;whiteSpace=wrap;html=1;" vertex="1" parent="uy0knRusU4-EjpB2rzDp-131">
          <mxGeometry x="391.5" width="200" height="200" as="geometry" />
        </mxCell>
        <mxCell id="uy0knRusU4-EjpB2rzDp-102" value="" style="group" vertex="1" connectable="0" parent="uy0knRusU4-EjpB2rzDp-131">
          <mxGeometry x="370" y="20" width="220" height="280" as="geometry" />
        </mxCell>
        <mxCell id="uy0knRusU4-EjpB2rzDp-103" value="- KodeProduk : Int" style="text;html=1;strokeColor=none;fillColor=none;align=center;verticalAlign=middle;whiteSpace=wrap;rounded=0;" vertex="1" parent="uy0knRusU4-EjpB2rzDp-102">
          <mxGeometry x="21.5" width="115" height="30" as="geometry" />
        </mxCell>
        <mxCell id="uy0knRusU4-EjpB2rzDp-104" value="- NamaProduk : string" style="text;html=1;strokeColor=none;fillColor=none;align=center;verticalAlign=middle;whiteSpace=wrap;rounded=0;" vertex="1" parent="uy0knRusU4-EjpB2rzDp-102">
          <mxGeometry x="24.5" y="20" width="130" height="30" as="geometry" />
        </mxCell>
        <mxCell id="uy0knRusU4-EjpB2rzDp-105" value="- HargaProduk : int" style="text;html=1;strokeColor=none;fillColor=none;align=center;verticalAlign=middle;whiteSpace=wrap;rounded=0;" vertex="1" parent="uy0knRusU4-EjpB2rzDp-102">
          <mxGeometry x="26.5" y="40" width="110" height="30" as="geometry" />
        </mxCell>
        <mxCell id="uy0knRusU4-EjpB2rzDp-108" value="" style="swimlane;startSize=0;" vertex="1" parent="uy0knRusU4-EjpB2rzDp-102">
          <mxGeometry x="21.5" y="70" width="200" height="110" as="geometry" />
        </mxCell>
        <mxCell id="uy0knRusU4-EjpB2rzDp-114" value="" style="group" vertex="1" connectable="0" parent="uy0knRusU4-EjpB2rzDp-108">
          <mxGeometry x="7" y="11" width="77" height="70" as="geometry" />
        </mxCell>
        <mxCell id="uy0knRusU4-EjpB2rzDp-109" value="+ Add ()" style="text;html=1;strokeColor=none;fillColor=none;align=center;verticalAlign=middle;whiteSpace=wrap;rounded=0;" vertex="1" parent="uy0knRusU4-EjpB2rzDp-114">
          <mxGeometry width="60" height="30" as="geometry" />
        </mxCell>
        <mxCell id="uy0knRusU4-EjpB2rzDp-110" value="+ Delete ()" style="text;html=1;strokeColor=none;fillColor=none;align=center;verticalAlign=middle;whiteSpace=wrap;rounded=0;" vertex="1" parent="uy0knRusU4-EjpB2rzDp-114">
          <mxGeometry x="6.5" y="20" width="60" height="30" as="geometry" />
        </mxCell>
        <mxCell id="uy0knRusU4-EjpB2rzDp-112" value="+ Update ()" style="text;html=1;strokeColor=none;fillColor=none;align=center;verticalAlign=middle;whiteSpace=wrap;rounded=0;" vertex="1" parent="uy0knRusU4-EjpB2rzDp-114">
          <mxGeometry x="2" y="40" width="75" height="30" as="geometry" />
        </mxCell>
        <mxCell id="uy0knRusU4-EjpB2rzDp-116" value="Supplier ()" style="swimlane;whiteSpace=wrap;html=1;" vertex="1" parent="uy0knRusU4-EjpB2rzDp-131">
          <mxGeometry x="391.5" y="250" width="203" height="210" as="geometry" />
        </mxCell>
        <mxCell id="uy0knRusU4-EjpB2rzDp-118" value="" style="group" vertex="1" connectable="0" parent="uy0knRusU4-EjpB2rzDp-116">
          <mxGeometry y="30" width="128.5" height="50" as="geometry" />
        </mxCell>
        <mxCell id="uy0knRusU4-EjpB2rzDp-119" value="- KodeSupply : int" style="text;html=1;strokeColor=none;fillColor=none;align=center;verticalAlign=middle;whiteSpace=wrap;rounded=0;" vertex="1" parent="uy0knRusU4-EjpB2rzDp-118">
          <mxGeometry width="110" height="30" as="geometry" />
        </mxCell>
        <mxCell id="uy0knRusU4-EjpB2rzDp-120" value="- NamaSupply : string" style="text;html=1;strokeColor=none;fillColor=none;align=center;verticalAlign=middle;whiteSpace=wrap;rounded=0;" vertex="1" parent="uy0knRusU4-EjpB2rzDp-118">
          <mxGeometry x="0.5" y="20" width="128" height="30" as="geometry" />
        </mxCell>
        <mxCell id="uy0knRusU4-EjpB2rzDp-121" value="" style="swimlane;startSize=0;" vertex="1" parent="uy0knRusU4-EjpB2rzDp-116">
          <mxGeometry y="110" width="203" height="100" as="geometry" />
        </mxCell>
        <mxCell id="uy0knRusU4-EjpB2rzDp-122" value="" style="group" vertex="1" connectable="0" parent="uy0knRusU4-EjpB2rzDp-121">
          <mxGeometry x="-2.5" y="5" width="77" height="70" as="geometry" />
        </mxCell>
        <mxCell id="uy0knRusU4-EjpB2rzDp-123" value="+ Add ()" style="text;html=1;strokeColor=none;fillColor=none;align=center;verticalAlign=middle;whiteSpace=wrap;rounded=0;" vertex="1" parent="uy0knRusU4-EjpB2rzDp-122">
          <mxGeometry width="60" height="30" as="geometry" />
        </mxCell>
        <mxCell id="uy0knRusU4-EjpB2rzDp-124" value="+ Delete ()" style="text;html=1;strokeColor=none;fillColor=none;align=center;verticalAlign=middle;whiteSpace=wrap;rounded=0;" vertex="1" parent="uy0knRusU4-EjpB2rzDp-122">
          <mxGeometry x="6.5" y="20" width="60" height="30" as="geometry" />
        </mxCell>
        <mxCell id="uy0knRusU4-EjpB2rzDp-125" value="+ Update ()" style="text;html=1;strokeColor=none;fillColor=none;align=center;verticalAlign=middle;whiteSpace=wrap;rounded=0;" vertex="1" parent="uy0knRusU4-EjpB2rzDp-122">
          <mxGeometry x="2" y="40" width="75" height="30" as="geometry" />
        </mxCell>
        <mxCell id="uy0knRusU4-EjpB2rzDp-130" style="edgeStyle=orthogonalEdgeStyle;rounded=0;orthogonalLoop=1;jettySize=auto;html=1;exitX=1;exitY=0;exitDx=0;exitDy=0;entryX=0;entryY=0.25;entryDx=0;entryDy=0;" edge="1" parent="uy0knRusU4-EjpB2rzDp-131" source="uy0knRusU4-EjpB2rzDp-92" target="uy0knRusU4-EjpB2rzDp-119">
          <mxGeometry relative="1" as="geometry" />
        </mxCell>
        <mxCell id="uy0knRusU4-EjpB2rzDp-132" value="Karyawan()" style="swimlane;whiteSpace=wrap;html=1;" vertex="1" parent="1">
          <mxGeometry x="11.5" y="1220" width="240" height="150" as="geometry" />
        </mxCell>
        <mxCell id="uy0knRusU4-EjpB2rzDp-135" value="" style="group" vertex="1" connectable="0" parent="uy0knRusU4-EjpB2rzDp-132">
          <mxGeometry y="21" width="160.5" height="110" as="geometry" />
        </mxCell>
        <mxCell id="uy0knRusU4-EjpB2rzDp-136" value="- KodeKaryawan : int" style="text;html=1;strokeColor=none;fillColor=none;align=center;verticalAlign=middle;whiteSpace=wrap;rounded=0;" vertex="1" parent="uy0knRusU4-EjpB2rzDp-135">
          <mxGeometry width="138" height="30" as="geometry" />
        </mxCell>
        <mxCell id="uy0knRusU4-EjpB2rzDp-137" value="- NamaKaryawan : string" style="text;html=1;strokeColor=none;fillColor=none;align=center;verticalAlign=middle;whiteSpace=wrap;rounded=0;" vertex="1" parent="uy0knRusU4-EjpB2rzDp-135">
          <mxGeometry x="9" y="20" width="138" height="30" as="geometry" />
        </mxCell>
        <mxCell id="uy0knRusU4-EjpB2rzDp-138" value="- UsiaKaryawan : int&amp;nbsp;" style="text;html=1;strokeColor=none;fillColor=none;align=center;verticalAlign=middle;whiteSpace=wrap;rounded=0;" vertex="1" parent="uy0knRusU4-EjpB2rzDp-135">
          <mxGeometry y="41" width="138" height="30" as="geometry" />
        </mxCell>
        <mxCell id="uy0knRusU4-EjpB2rzDp-139" value="- JpKaryawan : string" style="text;html=1;strokeColor=none;fillColor=none;align=center;verticalAlign=middle;whiteSpace=wrap;rounded=0;" vertex="1" parent="uy0knRusU4-EjpB2rzDp-135">
          <mxGeometry x="2" y="80" width="138" height="30" as="geometry" />
        </mxCell>
        <mxCell id="uy0knRusU4-EjpB2rzDp-140" value="- AlamatKaryawan : string" style="text;html=1;strokeColor=none;fillColor=none;align=center;verticalAlign=middle;whiteSpace=wrap;rounded=0;" vertex="1" parent="uy0knRusU4-EjpB2rzDp-135">
          <mxGeometry x="4.5" y="60" width="156" height="30" as="geometry" />
        </mxCell>
        <mxCell id="uy0knRusU4-EjpB2rzDp-157" value="Kategori()" style="swimlane;whiteSpace=wrap;html=1;" vertex="1" parent="1">
          <mxGeometry x="11.5" y="1520" width="240" height="110" as="geometry" />
        </mxCell>
        <mxCell id="uy0knRusU4-EjpB2rzDp-176" value="- Kategori : string" style="text;html=1;strokeColor=none;fillColor=none;align=center;verticalAlign=middle;whiteSpace=wrap;rounded=0;" vertex="1" parent="uy0knRusU4-EjpB2rzDp-157">
          <mxGeometry x="2" y="25" width="138" height="30" as="geometry" />
        </mxCell>
        <mxCell id="uy0knRusU4-EjpB2rzDp-177" value="- JumlahKP : int" style="text;html=1;strokeColor=none;fillColor=none;align=center;verticalAlign=middle;whiteSpace=wrap;rounded=0;" vertex="1" parent="uy0knRusU4-EjpB2rzDp-157">
          <mxGeometry x="-1.5" y="45" width="138" height="30" as="geometry" />
        </mxCell>
        <mxCell id="uy0knRusU4-EjpB2rzDp-164" value="" style="group" vertex="1" connectable="0" parent="1">
          <mxGeometry y="1630" width="230" height="210" as="geometry" />
        </mxCell>
        <mxCell id="uy0knRusU4-EjpB2rzDp-165" value="" style="swimlane;startSize=0;" vertex="1" parent="uy0knRusU4-EjpB2rzDp-164">
          <mxGeometry x="11.5" width="240" height="80" as="geometry" />
        </mxCell>
        <mxCell id="uy0knRusU4-EjpB2rzDp-166" value="" style="group" vertex="1" connectable="0" parent="uy0knRusU4-EjpB2rzDp-164">
          <mxGeometry x="21.5" width="77" height="70" as="geometry" />
        </mxCell>
        <mxCell id="uy0knRusU4-EjpB2rzDp-167" value="+ Add ()" style="text;html=1;strokeColor=none;fillColor=none;align=center;verticalAlign=middle;whiteSpace=wrap;rounded=0;" vertex="1" parent="uy0knRusU4-EjpB2rzDp-166">
          <mxGeometry width="60" height="30" as="geometry" />
        </mxCell>
        <mxCell id="uy0knRusU4-EjpB2rzDp-168" value="+ Delete ()" style="text;html=1;strokeColor=none;fillColor=none;align=center;verticalAlign=middle;whiteSpace=wrap;rounded=0;" vertex="1" parent="uy0knRusU4-EjpB2rzDp-166">
          <mxGeometry x="6.5" y="20" width="60" height="30" as="geometry" />
        </mxCell>
        <mxCell id="uy0knRusU4-EjpB2rzDp-169" value="+ Update ()" style="text;html=1;strokeColor=none;fillColor=none;align=center;verticalAlign=middle;whiteSpace=wrap;rounded=0;" vertex="1" parent="uy0knRusU4-EjpB2rzDp-166">
          <mxGeometry x="2" y="40" width="75" height="30" as="geometry" />
        </mxCell>
        <mxCell id="uy0knRusU4-EjpB2rzDp-178" value="" style="group" vertex="1" connectable="0" parent="1">
          <mxGeometry x="21.5" y="1370" width="230" height="210" as="geometry" />
        </mxCell>
        <mxCell id="uy0knRusU4-EjpB2rzDp-179" value="" style="swimlane;startSize=0;" vertex="1" parent="uy0knRusU4-EjpB2rzDp-178">
          <mxGeometry x="-10" width="240" height="80" as="geometry" />
        </mxCell>
        <mxCell id="uy0knRusU4-EjpB2rzDp-180" value="" style="group" vertex="1" connectable="0" parent="uy0knRusU4-EjpB2rzDp-178">
          <mxGeometry width="77" height="70" as="geometry" />
        </mxCell>
        <mxCell id="uy0knRusU4-EjpB2rzDp-181" value="+ Add ()" style="text;html=1;strokeColor=none;fillColor=none;align=center;verticalAlign=middle;whiteSpace=wrap;rounded=0;" vertex="1" parent="uy0knRusU4-EjpB2rzDp-180">
          <mxGeometry width="60" height="30" as="geometry" />
        </mxCell>
        <mxCell id="uy0knRusU4-EjpB2rzDp-182" value="+ Delete ()" style="text;html=1;strokeColor=none;fillColor=none;align=center;verticalAlign=middle;whiteSpace=wrap;rounded=0;" vertex="1" parent="uy0knRusU4-EjpB2rzDp-180">
          <mxGeometry x="6.5" y="20" width="60" height="30" as="geometry" />
        </mxCell>
        <mxCell id="uy0knRusU4-EjpB2rzDp-183" value="+ Update ()" style="text;html=1;strokeColor=none;fillColor=none;align=center;verticalAlign=middle;whiteSpace=wrap;rounded=0;" vertex="1" parent="uy0knRusU4-EjpB2rzDp-180">
          <mxGeometry x="2" y="40" width="75" height="30" as="geometry" />
        </mxCell>
      </root>
    </mxGraphModel>
  </diagram>
</mxfile>
